HIERARCHY
ROOT Hips
{
	OFFSET 0.000000 0.000000 0.000000
	CHANNELS 6 Xposition Yposition Zposition Zrotation Yrotation Xrotation 
	JOINT LowerBack
	{
		OFFSET 0.000000 0.000000 0.000000
		CHANNELS 3 Zrotation Yrotation Xrotation
		JOINT Spine
		{
			OFFSET 0.028270 2.035590 -0.193380
			CHANNELS 3 Zrotation Yrotation Xrotation
			JOINT Spine1
			{
				OFFSET 0.056720 2.048850 -0.042750
				CHANNELS 3 Zrotation Yrotation Xrotation
				JOINT Neck
				{
					OFFSET 0.000000 0.000000 0.000000
					CHANNELS 3 Zrotation Yrotation Xrotation
					JOINT Neck1
					{
						OFFSET -0.054170 1.746240 0.172020
						CHANNELS 3 Zrotation Yrotation Xrotation
						JOINT Head
						{
							OFFSET 0.104070 1.761360 -0.123970
							CHANNELS 3 Zrotation Yrotation Xrotation
							End Site
							{
								OFFSET 0.000000 0.000000 0.000000
							}
						}
					}
				}
				JOINT LeftShoulder
				{
					OFFSET 0.000000 0.000000 0.000000
					CHANNELS 3 Zrotation Yrotation Xrotation
					JOINT LeftArm
					{
						OFFSET 3.362410 1.200890 -0.311210
						CHANNELS 3 Zrotation Yrotation Xrotation
						JOINT LeftForeArm
						{
							OFFSET 4.983000 -0.000000 -0.000000
							CHANNELS 3 Zrotation Yrotation Xrotation
							JOINT LeftHand
							{
								OFFSET 3.483560 -0.000000 -0.000000
								CHANNELS 3 Zrotation Yrotation Xrotation
								JOINT LeftFingerBase
								{
									OFFSET 0.000000 0.000000 0.000000
									CHANNELS 3 Zrotation Yrotation Xrotation
									JOINT LeftHandIndex1
									{
										OFFSET 0.715260 -0.000000 -0.000000
										CHANNELS 3 Zrotation Yrotation Xrotation
										End Site
										{
											OFFSET 0.000000 0.000000 0.000000
										}
									}
								}
								JOINT LThumb
								{
									OFFSET 0.000000 0.000000 0.000000
									CHANNELS 3 Zrotation Yrotation Xrotation
									End Site
									{
										OFFSET 0.000000 0.000000 0.000000
									}
								}
							}
						}
					}
				}
				JOINT RightShoulder
				{
					OFFSET 0.000000 0.000000 0.000000
					CHANNELS 3 Zrotation Yrotation Xrotation
					JOINT RightArm
					{
						OFFSET -3.136600 1.374050 -0.404650
						CHANNELS 3 Zrotation Yrotation Xrotation
						JOINT RightForeArm
						{
							OFFSET -5.241900 -0.000000 -0.000000
							CHANNELS 3 Zrotation Yrotation Xrotation
							JOINT RightHand
							{
								OFFSET -3.444170 -0.000000 -0.000000
								CHANNELS 3 Zrotation Yrotation Xrotation
								JOINT RightFingerBase
								{
									OFFSET 0.000000 0.000000 0.000000
									CHANNELS 3 Zrotation Yrotation Xrotation
									JOINT RightHandIndex1
									{
										OFFSET -0.622530 -0.000000 -0.000000
										CHANNELS 3 Zrotation Yrotation Xrotation
										End Site
										{
											OFFSET 0.000000 0.000000 0.000000
										}
									}
								}
								JOINT RThumb
								{
									OFFSET 0.000000 0.000000 0.000000
									CHANNELS 3 Zrotation Yrotation Xrotation
									End Site
									{
										OFFSET 0.000000 0.000000 0.000000
									}
								}
							}
						}
					}
				}
			}
		}
	}
}
}
MOTION
Frames: 9
Frame Time: 0.008333
2.747209 16.461265 -2.215737 97.077046 -73.862155 -103.390554 -14.812938 -1.702457 9.078749 -3.045556 -1.070183 -1.590904 -3.934899 -0.960730 -2.178145 4.872246 -11.335139 -4.695710 -0.678171 -0.089776 0.678984 0.000000 0.000000 0.000000 6.623502 5.244385 -1.351295 -48.121641 35.922501 40.216618 -0.642778 -80.119601 -0.016590 -6.237366 -8.753312 0.490590 0.138016 0.059574 0.000000 0.000000 0.000000 0.000000 0.000000 0.000000 0.000000 -0.039509 -6.526212 0.053410 64.026766 -8.947250 32.000814 0.850852 59.835169 -0.001287 -6.114858 6.393518 -0.354519 0.105806 -0.139941 0.000000 0.000000 0.000000 0.000000 0.000000 0.000000 0.000000 
2.762701 16.452297 -2.215342 97.405484 -74.110396 -103.603061 -14.610580 -1.588898 8.841992 -3.001605 -0.942992 -1.635742 -3.946799 -0.837573 -2.147130 4.900049 -11.425815 -4.751154 -0.679157 -0.088925 0.664304 0.000000 0.000000 0.000000 6.714101 5.828335 -1.414635 -48.620970 36.421365 39.750477 -0.634268 -80.448750 -0.016603 -6.362781 -8.784922 0.502381 0.139710 0.061506 0.000000 0.000000 0.000000 0.000000 0.000000 0.000000 0.000000 0.027912 -6.546096 0.016857 64.176593 -9.551634 31.709084 0.867349 59.706368 -0.000944 -6.125406 6.393102 -0.355015 0.106978 -0.137764 0.000000 0.000000 0.000000 0.000000 0.000000 0.000000 0.000000 
2.779665 16.450599 -2.216901 97.702933 -74.344849 -103.771423 -14.432686 -1.471363 8.554353 -2.966926 -0.812880 -1.688087 -3.967676 -0.712254 -2.106059 4.944174 -11.557216 -4.806504 -0.688439 -0.088693 0.649523 0.000000 0.000000 0.000000 6.770113 6.428177 -1.484574 -49.097632 36.924349 39.151649 -0.624632 -80.806146 -0.016566 -6.464485 -8.838575 0.513575 0.140912 0.063792 0.000000 0.000000 0.000000 0.000000 0.000000 0.000000 0.000000 0.158513 -6.610261 -0.021902 64.319298 -10.102860 31.462117 0.886645 59.536553 -0.000537 -6.118405 6.388114 -0.354310 0.108202 -0.135360 0.000000 0.000000 0.000000 0.000000 0.000000 0.000000 0.000000 
2.797279 16.456820 -2.221043 98.133898 -74.482796 -104.124208 -14.346782 -1.336507 8.244781 -2.958557 -0.666967 -1.740992 -3.997345 -0.571142 -2.058230 5.010670 -11.727089 -4.856918 -0.706824 -0.089186 0.635299 0.000000 0.000000 0.000000 6.790222 7.044903 -1.564368 -49.545097 37.458244 38.411091 -0.614634 -81.180360 -0.016540 -6.545498 -8.909656 0.524271 0.141709 0.065945 -0.000000 0.000000 0.000000 0.000000 0.000000 0.000000 0.000000 0.366572 -6.709452 -0.063160 64.444790 -10.576718 31.294915 0.908396 59.319577 -0.000063 -6.073285 6.380282 -0.351206 0.109149 -0.132793 0.000000 0.000000 0.000000 0.000000 0.000000 0.000000 0.000000 
2.814178 16.471103 -2.227530 98.981027 -74.419008 -105.074901 -14.424850 -1.159031 7.990911 -2.996439 -0.479706 -1.774404 -4.032985 -0.386983 -2.009441 5.096406 -11.928339 -4.896315 -0.733103 -0.090368 0.622352 0.000000 0.000000 0.000000 6.772834 7.690548 -1.657719 -49.968092 38.052209 37.526092 -0.605258 -81.553477 -0.016602 -6.608291 -8.995290 0.534366 0.142234 0.067441 -0.000000 0.000000 0.000000 0.000000 0.000000 0.000000 0.000000 0.647425 -6.819663 -0.107416 64.543973 -10.950038 31.243373 0.931688 59.052905 0.000456 -5.970820 6.371436 -0.344704 0.109444 -0.130227 0.000000 0.000000 0.000000 0.000000 0.000000 0.000000 0.000000 
2.828399 16.492658 -2.234277 100.637885 -74.075162 -107.214922 -14.676509 -0.901263 7.916036 -3.086726 -0.211873 -1.756065 -4.067470 -0.118402 -1.968853 5.177788 -12.146583 -4.916915 -0.763072 -0.092021 0.612068 0.000000 0.000000 0.000000 6.700306 8.393833 -1.768842 -50.385841 38.735366 36.503828 -0.597590 -81.902993 -0.016811 -6.656748 -9.090609 0.543957 0.142610 0.067849 -0.000000 0.000000 0.000000 0.000000 0.000000 0.000000 0.000000 0.958885 -6.898770 -0.155299 64.601895 -11.205296 31.344403 0.955378 58.739766 0.000985 -5.794651 6.363430 -0.334108 0.108743 -0.127909 0.000000 0.000000 0.000000 0.000000 0.000000 0.000000 0.000000 
2.836840 16.520112 -2.235960 103.539270 -73.478138 -111.127638 -14.960701 -0.523472 8.110033 -3.195435 0.176077 -1.669990 -4.088228 0.274686 -1.948019 5.203407 -12.359251 -4.911859 -0.788698 -0.093676 0.606670 0.000000 0.000000 0.000000 6.526003 9.201828 -1.901383 -50.834209 39.533283 35.368011 -0.592970 -82.200760 -0.017122 -6.695726 -9.189447 0.553047 0.142673 0.067135 -0.000000 0.000000 0.000000 0.000000 0.000000 0.000000 0.000000 1.207328 -6.899965 -0.206712 64.588011 -11.343513 31.634411 0.978736 58.392934 0.001506 -5.533063 6.358176 -0.318818 0.106859 -0.126023 0.000000 0.000000 0.000000 0.000000 0.000000 0.000000 0.000000 
2.836471 16.552590 -2.227935 107.659753 -72.717565 -116.682921 -15.077252 -0.031769 8.498266 -3.264756 0.672427 -1.552828 -4.082601 0.777883 -1.951530 5.133867 -12.546732 -4.883438 -0.803080 -0.094875 0.607784 0.000000 0.000000 0.000000 6.208421 10.138053 -2.053388 -51.342631 40.456864 34.145395 -0.593178 -82.413720 -0.017342 -6.730092 -9.284771 0.561444 0.141842 0.065822 -0.000000 0.000000 0.000000 0.000000 0.000000 0.000000 0.000000 1.316117 -6.819568 -0.261259 64.463706 -11.386848 32.132931 1.001193 58.031412 0.002035 -5.181871 6.358199 -0.298636 0.103780 -0.124447 0.000000 0.000000 0.000000 0.000000 0.000000 0.000000 0.000000 
2.827712 16.591078 -2.214666 111.927807 -71.816954 -122.460690 -15.068328 0.474782 8.849758 -3.293500 1.178429 -1.460946 -4.054123 1.288956 -1.961712 5.020604 -12.713894 -4.846917 -0.810894 -0.095857 0.613897 0.000000 0.000000 0.000000 5.802052 11.134924 -2.210994 -51.908123 41.479521 32.823170 -0.600486 -82.506830 -0.017314 -6.764588 -9.369564 0.569153 0.139658 0.064328 -0.000000 0.000000 0.000000 0.000000 0.000000 0.000000 0.000000 1.363853 -6.726413 -0.321750 64.227550 -11.349460 32.803176 1.020820 57.670348 0.002601 -4.746554 6.368810 -0.274160 0.099528 -0.122869 0.000000 0.000000 0.000000 0.000000 0.000000 0.000000 0.000000 
